Coordinates
version=1
nRows=8
nColumns=46
inDegrees=yes

Units are S.I. units (second, meters, Newtons, ...)
Angles are in degrees.

endheader
time	pelvis_tilt	pelvis_list	pelvis_rotation	pelvis_tx	pelvis_ty	pelvis_tz	bb_angle	bb_tx	bb_ty	bb_tz	hip_flexion_r	hip_adduction_r	hip_rotation_r	knee_angle_r	knee_angle_r_beta	ankle_angle_r	subtalar_angle_r	mtp_angle_r	crank_angle_r	hip_flexion_l	hip_adduction_l	hip_rotation_l	knee_angle_l	knee_angle_l_beta	ankle_angle_l	subtalar_angle_l	mtp_angle_l	crank_angle_l	lumbar_extension	lumbar_bending	lumbar_rotation	arm_flex_r	arm_add_r	arm_rot_r	elbow_flex_r	pro_sup_r	wrist_flex_r	wrist_dev_r	arm_flex_l	arm_add_l	arm_rot_l	elbow_flex_l	pro_sup_l	wrist_flex_l	wrist_dev_l
      0.00000000	    -27.29906627	     36.79826104	     -1.11604010	      0.10462168	      1.02952349	     -0.20046129	      0.00000000	      0.50000000	      0.00000000	      0.25000000	    119.97190778	     10.41246158	     39.74762940	    113.63082472	      1.98323202	     22.78492481	      8.99774461	      0.00000000	      0.00000000	     57.12568593	      8.82922347	    -39.87277339	     60.24994769	      1.05155996	     26.42255906	     13.25736958	      0.00000000	      0.00000000	    -32.32733466	    -39.82916943	    -17.04717228	     85.80243124	     -0.64783770	     43.44082271	     14.53622672	     27.00068089	      0.00000000	      0.00000000	     89.63640279	     -9.44707092	     62.32417250	     17.85282586	     22.27894429	      0.00000000	      0.00000000
      0.00500000	    -17.17466111	     -5.31021144	     -2.79537959	      0.10558554	      1.13421511	     -0.23520110	      0.00000000	      0.50000000	      0.00000000	      0.25000000	     92.63710395	     -6.61250687	     -5.72219174	     99.55822079	      1.73761875	     20.13851742	      2.61282036	      0.00000000	      0.00000000	     46.82692612	    -15.92539366	     -7.31297197	     55.09975129	      0.96167208	     19.95971369	     10.24593063	      0.00000000	      0.00000000	    -47.54393190	      4.07087372	      8.06428154	     89.52539000	     -8.26353304	     34.83941004	     28.99749363	     26.33327082	      0.00000000	      0.00000000	     89.49618407	     -1.72962184	     36.50249031	     20.79980255	     20.52480075	      0.00000000	      0.00000000
      0.01000000	    -16.97552852	     -5.28445746	     -2.85264415	      0.10568822	      1.13456432	     -0.23500377	      0.00000000	      0.50000000	      0.00000000	      0.25000000	     92.42826059	     -6.51764045	     -5.67091019	     99.58663550	      1.73811468	     20.30215288	      2.80017964	      0.00000000	      0.00000000	     46.54274488	    -16.00902889	     -7.45064174	     55.06623948	      0.96108719	     20.23965879	     10.78356913	      0.00000000	      0.00000000	    -47.90973724	      3.93663234	      8.12790512	     89.48906174	     -8.38769398	     33.62357625	     29.87113239	     27.20704303	      0.00000000	      0.00000000	     89.45323371	     -1.84013957	     34.87310784	     21.99148255	     21.87952118	      0.00000000	      0.00000000
      0.01500000	    -16.82799811	     -5.44659326	     -2.78516789	      0.10560734	      1.13481544	     -0.23529856	      0.00000000	      0.50000000	      0.00000000	      0.25000000	     92.19186452	     -6.61355038	     -5.82167757	     99.53434213	      1.73720199	     20.39630242	      3.10508634	      0.00000000	      0.00000000	     46.41722080	    -15.94322994	     -7.10258615	     55.00690716	      0.96005164	     20.15739064	     10.95055620	      0.00000000	      0.00000000	    -48.06754499	      4.14592895	      8.22319869	     89.51318632	     -8.21923643	     33.20737334	     29.55888724	     27.85137550	      0.00000000	      0.00000000	     89.46660921	     -1.49055301	     33.85746300	     21.52042129	     22.71117814	      0.00000000	      0.00000000
      0.02000000	    -16.76747087	     -5.31694700	     -2.74745693	      0.10571935	      1.13518098	     -0.23574209	      0.00000000	      0.50000000	      0.00000000	      0.25000000	     92.14463474	     -6.68211240	     -5.70186638	     99.55158466	      1.73750293	     20.41600757	      2.96310176	      0.00000000	      0.00000000	     46.28850816	    -15.86849032	     -7.36483529	     54.97108217	      0.95942638	     20.24303254	     10.63776761	      0.00000000	      0.00000000	    -48.13380733	      3.99701944	      8.10786785	     89.47668496	     -8.23872805	     32.58269177	     29.60834984	     28.69566991	      0.00000000	      0.00000000	     89.45235170	     -1.31143322	     32.75677146	     21.53698145	     23.83637780	      0.00000000	      0.00000000
      0.02500000	    -17.07469231	     -5.22023731	     -2.68020446	      0.10554658	      1.13459661	     -0.23593618	      0.00000000	      0.50000000	      0.00000000	      0.25000000	     92.54044295	     -6.75368560	     -5.56285432	     99.55615859	      1.73758276	     20.15889385	      2.69397704	      0.00000000	      0.00000000	     46.69049009	    -15.65272138	     -7.19129330	     55.01848541	      0.96025372	     19.97164506	      9.95567699	      0.00000000	      0.00000000	    -47.64839213	      4.00340827	      7.91603154	     89.51454637	     -8.00218820	     33.60166546	     28.40646093	     28.84235004	      0.00000000	      0.00000000	     89.50353544	     -0.92214414	     32.70584993	     20.10242372	     24.16523502	      0.00000000	      0.00000000
      0.03000000	    -17.05068588	     -5.20328798	     -2.68103980	      0.10559220	      1.13468747	     -0.23597639	      0.00000000	      0.50000000	      0.00000000	      0.25000000	     92.51225290	     -6.75108655	     -5.54764353	     99.55984994	      1.73764718	     20.19232461	      2.69035416	      0.00000000	      0.00000000	     46.63139206	    -15.63626498	     -7.22455655	     54.97232463	      0.95944806	     20.00922933	      9.99251499	      0.00000000	      0.00000000	    -47.66697398	      3.98185594	      7.93014079	     89.51701266	     -8.08463056	     33.73458554	     28.37817413	     29.12302827	      0.00000000	      0.00000000	     89.49915380	     -0.84190274	     32.37582622	     20.03447782	     24.69804224	      0.00000000	      0.00000000
      0.03500000	    -17.07677165	     -5.21630022	     -2.66716479	      0.10558772	      1.13463783	     -0.23602474	      0.00000000	      0.50000000	      0.00000000	      0.25000000	     92.54286441	     -6.77059704	     -5.56108143	     99.56493559	      1.73773595	     20.16283568	      2.70307238	      0.00000000	      0.00000000	     46.67473740	    -15.63094449	     -7.19301637	     54.98277555	      0.95963047	     19.97518735	      9.97420434	      0.00000000	      0.00000000	    -47.64143744	      3.99374107	      7.90373830	     89.51704021	     -8.15447358	     33.96435619	     28.37084893	     29.34010362	      0.00000000	      0.00000000	     89.50147382	     -0.82551387	     32.19039837	     19.98629944	     25.11848258	      0.00000000	      0.00000000
